<?xml version="1.0" encoding="utf-8"?>
<!-- Generator: Adobe Illustrator 16.0.0, SVG Export Plug-In . SVG Version: 6.00 Build 0)  -->
<!DOCTYPE svg PUBLIC "-//W3C//DTD SVG 1.1//EN" "http://www.w3.org/Graphics/SVG/1.1/DTD/svg11.dtd">
<svg version="1.1" id="Layer_1" xmlns="http://www.w3.org/2000/svg" xmlns:xlink="http://www.w3.org/1999/xlink" x="0px" y="0px"
	 width="100.001px" height="100px" viewBox="0 0 100.001 100" enable-background="new 0 0 100.001 100" xml:space="preserve">
<circle fill="#09BCD4" cx="50.001" cy="50" r="50.001"/>
<g>
	<path fill="#FFFFFF" d="M25.054,36.76v5.818h-4.133V25.431h6.842c4.122,0,6.654,2.461,6.654,5.818c0,3.32-2.532,5.511-6.654,5.511
		H25.054z M25.054,33.569h2.709c1.731,0,2.461-0.966,2.461-2.297c0-1.401-0.73-2.649-2.461-2.649h-2.709V33.569z"/>
	<path fill="#FFFFFF" d="M44.981,39.375h-5.664l-0.989,3.203h-4.417l6.289-17.147h3.886l6.336,17.147h-4.44L44.981,39.375z
		 M40.306,36.183h3.686l-1.849-5.947L40.306,36.183z"/>
	<path fill="#FFFFFF" d="M56.524,39.398h7.196v3.18H52.39V25.431h4.134V39.398z"/>
	<path fill="#FFFFFF" d="M76.817,35.312h-6.5v4.086h7.679v3.18H66.183V25.431h11.836v3.192h-7.702v3.615h6.5V35.312z"/>
	<path fill="#FFFFFF" d="M20.921,71.514V54.367h6.159c4.239,0,6.76,1.53,6.76,4.733c0,1.555-0.66,3.004-2.415,3.663
		c2.038,0.53,2.78,2.108,2.78,3.675c0,3.392-2.191,5.075-6.442,5.075H20.921z M25.054,61.515h2.155
		c1.802-0.011,2.508-0.66,2.508-1.919c0-1.448-0.789-2.038-2.638-2.038h-2.026V61.515z M25.054,64.224v4.109h2.709
		c1.661,0,2.32-0.871,2.32-1.953c0-1.319-0.601-2.156-2.167-2.156H25.054z"/>
	<path fill="#FFFFFF" d="M41.331,68.333h7.196v3.181h-11.33V54.367h4.134V68.333z"/>
	<path fill="#FFFFFF" d="M64.156,54.367v11.198c0,4.018-2.685,6.183-6.737,6.183c-4.016,0-6.771-2.165-6.771-6.183V54.367h4.158
		v11.198c0,2.121,0.93,3.004,2.613,3.004c1.708,0,2.604-0.883,2.604-3.004V54.367H64.156z"/>
	<path fill="#FFFFFF" d="M78.088,64.246h-6.501v4.087h7.68v3.181H67.455V54.367H79.29v3.19h-7.702v3.615h6.501V64.246z"/>
</g>
</svg>
